# xmcd
#
# Track frame offsets:
#	150
#	16147
#	30397
#	47542
#
# Disc length: 748 seconds
#
# Revision: 0
# Processed by: cddbd v1.5.1PL2 Copyright (c) Steve Scherf et al.
# Submitted via: dBpowerAMP V4.0
#
DISCID=1f02ea04
DTITLE=Attic Lights - Shiver The Trees
DYEAR=2006
DGENRE=Country
TTITLE0=Martin
TTITLE1=Wendy
TTITLE2=Nothing But Love
TTITLE3=Electric Beams
EXTD=
EXTT0=
EXTT1=
EXTT2=
EXTT3=
PLAYORDER=
